<mxfile host="www.draw.io" modified="2020-05-23T00:41:44.141Z" agent="5.0 (X11)" etag="YpjeOYP0VFU0j6AWnOrv" version="12.9.4" type="github">
  <diagram id="37b40rkznRmd5zB-N1h-" name="Page-1">
    <mxGraphModel dx="1357" dy="784" grid="1" gridSize="10" guides="1" tooltips="1" connect="1" arrows="1" fold="1" page="1" pageScale="1" pageWidth="850" pageHeight="1100" math="0" shadow="0">
      <root>
        <mxCell id="0" />
        <mxCell id="1" parent="0" />
        <mxCell id="qKLJQ80QXNiNEpqxFxB6-1" value="" style="ellipse;whiteSpace=wrap;html=1;aspect=fixed;" parent="1" vertex="1">
          <mxGeometry x="150" y="170" width="80" height="80" as="geometry" />
        </mxCell>
        <mxCell id="qKLJQ80QXNiNEpqxFxB6-2" value="lpo" style="text;html=1;align=center;verticalAlign=middle;resizable=0;points=[];;autosize=1;" parent="1" vertex="1">
          <mxGeometry x="80" y="250" width="30" height="20" as="geometry" />
        </mxCell>
      </root>
    </mxGraphModel>
  </diagram>
</mxfile>
